{"scene":0,"asset":{"generator":"ImageToStl.com","version":"2.0"},"scenes":[{"name":"Scene","nodes":[0]}],"nodes":[{"name":"Node0","children":[1]},{"name":"Node1","mesh":0}],"materials":[{"name":"Material","pbrMetallicRoughness":{"baseColorFactor":[0.8,0.8,0.8,1.0],"metallicFactor":0.5,"roughnessFactor":0.75},"emissiveFactor":[0.0,0.0,0.0],"doubleSided":true}],"meshes":[{"name":"Mesh0","primitives":[{"indices":3,"material":0,"attributes":{"POSITION":0,"NORMAL":1,"TEXCOORD_0":2}}]}],"accessors":[{"bufferView":0,"componentType":5126,"count":14,"type":"VEC3","min":[-1.0,-1.0,-1.0],"max":[1.0,1.0,1.0]},{"bufferView":1,"componentType":5126,"count":14,"type":"VEC3"},{"bufferView":2,"componentType":5126,"count":14,"type":"VEC2"},{"bufferView":3,"componentType":5123,"count":108,"type":"SCALAR"}],"bufferViews":[{"target":34962,"buffer":0,"byteLength":168,"byteOffset":0},{"target":34962,"buffer":0,"byteLength":168,"byteOffset":168},{"target":34962,"buffer":0,"byteLength":112,"byteOffset":336},{"target":34963,"buffer":0,"byteLength":216,"byteOffset":448}],"buffers":[{"byteLength":664,"uri":"data:application/octet-stream;base64,"}]}